# xmcd CD database file
#
# Track frame offsets:
#	150
#	24177
#	41287
#	69535
#	85465
#	100567
#	119117
#	135352
#	160415
#	177450
#	196257
#	218945
#	245059
#
# Disc length: 3500 seconds
#
# Revision: 0
# Processed by: cddbd v1.5.2PL0 Copyright (c) Steve Scherf et al.
# Submitted via: CDex 1.70beta2
#
DISCID=b30daa0d
DTITLE=John Neudorf - I Remember
DYEAR=2001
DGENRE=Jazz
TTITLE0=Sandu
TTITLE1=The Lady Is A Tramp
TTITLE2=Creepin
TTITLE3=The Days Of Wine And Roses
TTITLE4=Softly As In Morning Sunrise
TTITLE5=A Nightingale Sang In Berkley Square
TTITLE6=Joyspring
TTITLE7=My One And Only Love
TTITLE8=On Green Dolphin Street
TTITLE9=Last Time
TTITLE10=Waltz For Debbie
TTITLE11=I Remember Clifford
TTITLE12=Bonus Track
EXTD=YEAR: 2001
EXTT0=
EXTT1=
EXTT2=
EXTT3=
EXTT4=
EXTT5=
EXTT6=
EXTT7=
EXTT8=
EXTT9=
EXTT10=
EXTT11=
EXTT12=
PLAYORDER=
